<svg width="30" height="24" viewBox="0 0 30 24" fill="none" xmlns="http://www.w3.org/2000/svg">
<g clip-path="url(#clip0_99_22)">
<path d="M5.47969 7.42969C5.12813 7.84687 4.56563 8.175 4.00313 8.12812C3.93282 7.56562 4.20938 6.96562 4.53282 6.6C4.88438 6.17344 5.49844 5.86875 6 5.84531C6.05625 6.42656 5.82657 7.00312 5.47969 7.42969ZM5.99063 8.23594C5.175 8.18906 4.47657 8.7 4.09219 8.7C3.69844 8.7 3.10782 8.25937 2.46094 8.27344C1.62188 8.2875 0.843753 8.76094 0.41719 9.51562C-0.46406 11.0297 0.187503 13.2656 1.04063 14.4984C1.45782 15.1078 1.95469 15.7781 2.61094 15.7547C3.23438 15.7313 3.47813 15.3516 4.22813 15.3516C4.98282 15.3516 5.20313 15.7547 5.85938 15.7453C6.53907 15.7312 6.96563 15.1359 7.38282 14.5266C7.85625 13.8328 8.05313 13.1625 8.0625 13.125C8.04844 13.1109 6.75 12.6141 6.73594 11.1141C6.72188 9.85781 7.7625 9.2625 7.80938 9.225C7.22344 8.35312 6.30938 8.25937 5.99063 8.23594ZM10.6969 6.53906V15.675H12.1172V12.5531H14.0813C15.8766 12.5531 17.1328 11.3203 17.1328 9.53906C17.1328 7.75781 15.8953 6.53906 14.1281 6.53906H10.6969ZM12.1172 7.73437H13.7531C14.9859 7.73437 15.6891 8.39063 15.6891 9.54375C15.6891 10.6969 14.9859 11.3625 13.7484 11.3625H12.1172V7.73437ZM19.7203 15.7453C20.6109 15.7453 21.4359 15.2953 21.8109 14.5781H21.8391V15.675H23.1516V11.1281C23.1516 9.81094 22.0969 8.95781 20.475 8.95781C18.9703 8.95781 17.8547 9.82031 17.8125 11.0016H19.0922C19.2 10.4391 19.7203 10.0687 20.4328 10.0687C21.3 10.0687 21.7875 10.4719 21.7875 11.2172V11.7234L20.0156 11.8312C18.3703 11.9297 17.4797 12.6047 17.4797 13.7766C17.4844 14.9578 18.4031 15.7453 19.7203 15.7453ZM20.1047 14.6625C19.35 14.6625 18.8672 14.2969 18.8672 13.7438C18.8672 13.1672 19.3313 12.8344 20.2172 12.7828L21.7922 12.6844V13.2C21.7922 14.0531 21.0656 14.6625 20.1047 14.6625ZM24.9094 18.1594C26.2922 18.1594 26.9438 17.6297 27.5109 16.0312L30 9.04687H28.5563L26.8875 14.4422H26.8594L25.1906 9.04687H23.7094L26.1094 15.6984L25.9781 16.1016C25.7625 16.7859 25.4109 17.0531 24.7828 17.0531C24.6703 17.0531 24.4547 17.0391 24.3656 17.0297V18.1266C24.45 18.1453 24.8016 18.1594 24.9094 18.1594Z" fill="#757575" fill-opacity="0.5"/>
</g>
<defs>
<clipPath id="clip0_99_22">
<rect width="30" height="24" fill="white"/>
</clipPath>
</defs>
</svg>
