<svg width="24" height="24" viewBox="0 0 24 24" fill="none" xmlns="http://www.w3.org/2000/svg">
<path d="M9.93 12.99C10.03 12.99 12.35 13.09 13.73 12.75H13.74C15.33 12.36 17.54 11.24 18.11 7.58C18.11 7.58 19.38 3 13.08 3H7.67C7.18 3 6.76 3.36 6.68 3.84L4.38 18.4C4.33 18.7 4.57 18.98 4.87 18.98H8.3L9.14 13.66C9.2 13.28 9.53 12.99 9.93 12.99Z" fill="#757575" fill-opacity="0.5"/>
<path d="M18.99 8.29C18.18 12.02 15.63 13.99 11.57 13.99H10.1L9.07 20.51C9.03 20.77 9.23 21 9.49 21H11.39C11.73 21 12.03 20.75 12.08 20.41C12.16 20.01 12.6 17.09 12.69 16.59C12.74 16.25 13.04 16 13.38 16H13.82C16.64 16 18.85 14.85 19.5 11.54C19.76 10.2 19.62 9.1 18.99 8.29Z" fill="#757575" fill-opacity="0.5"/>
</svg>
