<svg width="24" height="24" viewBox="0 0 24 24" fill="none" xmlns="http://www.w3.org/2000/svg">
<path d="M22.222 15.768L21.997 14.643H19.483L19.083 15.76L17.068 15.764C18.3633 12.6513 19.3247 10.3457 19.952 8.847C20.116 8.455 20.407 8.255 20.836 8.258C21.164 8.26067 21.6993 8.261 22.442 8.259L24 15.765L22.222 15.768ZM20.048 13.102H21.669L21.064 10.282L20.048 13.102ZM7.062 8.257L9.088 8.259L5.956 15.769L3.905 15.767C3.38925 13.7833 2.87991 11.798 2.377 9.811C2.277 9.415 2.079 9.138 1.698 9.007C1.35733 8.89033 0.791333 8.71 0 8.466V8.259H3.237C3.797 8.259 4.124 8.53 4.229 9.086C4.335 9.64333 4.60167 11.0613 5.029 13.34L7.062 8.257ZM11.872 8.259L10.271 15.768L8.342 15.765L9.94 8.257L11.872 8.259ZM15.782 8.12C16.359 8.12 17.086 8.3 17.504 8.466L17.166 10.022C16.788 9.87 16.166 9.665 15.643 9.672C14.883 9.685 14.413 10.004 14.413 10.31C14.413 10.808 15.229 11.059 16.069 11.603C17.027 12.223 17.154 12.78 17.142 13.386C17.129 14.641 16.069 15.88 13.833 15.88C12.813 15.865 12.445 15.78 11.613 15.484L11.965 13.86C12.812 14.214 13.171 14.327 13.895 14.327C14.558 14.327 15.127 14.059 15.132 13.592C15.136 13.26 14.932 13.095 14.188 12.685C13.444 12.275 12.4 11.706 12.414 10.563C12.431 9.101 13.816 8.12 15.782 8.12Z" fill="#757575" fill-opacity="0.5"/>
</svg>
